<?xml version="1.0"?>
<svg xmlns="http://www.w3.org/2000/svg" xmlns:xlink="http://www.w3.org/1999/xlink" version="1.1" id="Capa_1" x="0px" y="0px" viewBox="0 0 512 512" style="enable-background:new 0 0 512 512;" xml:space="preserve" width="512px" height="512px"><g><g>
	<g>
		<path d="M166.53,22.984c-52.493,0-95.199,42.706-95.199,95.199s42.706,95.199,95.199,95.199c52.493,0,95.199-42.706,95.199-95.199    S219.023,22.984,166.53,22.984z M166.53,183.38c-35.951,0-65.199-29.248-65.199-65.199s29.248-65.199,65.199-65.199    c35.951,0,65.199,29.248,65.199,65.199S202.481,183.38,166.53,183.38z" data-original="#000000" class="active-path" data-old_color="#000000" fill="#FFA001"/>
	</g>
</g><g>
	<g>
		<path d="M437,283.263H324.233c-3.345,0-6.632,0.242-9.862,0.669c-20.881-32.312-57.218-53.745-98.47-53.745h-98.745    C52.557,230.187,0,282.742,0,347.344v126.673c0,8.284,6.716,15,15,15h249.233h53.826H497c8.284,0,15-6.716,15-15V358.263    C512,316.906,478.355,283.263,437,283.263z M249.234,358.263v100.754H30V347.344c0-48.059,39.099-87.157,87.157-87.157h98.745    c28.136,0,53.197,13.405,69.143,34.16C263.58,307.556,249.234,331.263,249.234,358.263z M482,459.016H303.06h-23.826V358.263    c0-24.813,20.187-45,45-45H437c24.813,0,45,20.187,45,45V459.016z" data-original="#000000" class="active-path" data-old_color="#000000" fill="#FFA001"/>
	</g>
</g><g>
	<g>
		<path d="M380.617,109.619c-42.237,0-76.598,34.361-76.598,76.598c0,42.236,34.361,76.597,76.598,76.597    c42.236,0,76.598-34.361,76.598-76.597S422.854,109.619,380.617,109.619z M380.616,232.815c-25.694,0-46.598-20.903-46.598-46.597    c0-25.694,20.904-46.598,46.598-46.598c25.694,0,46.598,20.903,46.598,46.598C427.214,211.911,406.31,232.815,380.616,232.815z" data-original="#000000" class="active-path" data-old_color="#000000" fill="#FFA001"/>
	</g>
</g></g> </svg>
