<?xml version="1.0"?>
<svg xmlns="http://www.w3.org/2000/svg" xmlns:xlink="http://www.w3.org/1999/xlink" version="1.1" id="Capa_1" x="0px" y="0px" viewBox="0 0 477.869 477.869" style="enable-background:new 0 0 477.869 477.869;" xml:space="preserve" width="512px" height="512px"><g><g>
	<g>
		<path d="M387.415,233.496c48.976-44.029,52.987-119.424,8.958-168.4C355.991,20.177,288.4,12.546,239.02,47.332    c-53.83-37.99-128.264-25.149-166.254,28.68c-34.859,49.393-27.259,117.054,17.689,157.483    c-55.849,29.44-90.706,87.481-90.453,150.613v51.2c0,9.426,7.641,17.067,17.067,17.067h443.733    c9.426,0,17.067-7.641,17.067-17.067v-51.2C478.121,320.976,443.264,262.935,387.415,233.496z M269.416,221.447    c-1.707-0.819-3.413-1.536-4.932-2.458c0.137-0.171,0.222-0.358,0.358-0.529c7.826-10.056,13.996-21.296,18.278-33.297    l0.529-1.434c1.947-5.732,3.459-11.602,4.523-17.562c0.154-0.87,0.273-1.707,0.41-2.645c0.987-6.067,1.506-12.2,1.553-18.347    c-0.049-6.135-0.568-12.257-1.553-18.313c-0.137-0.887-0.256-1.707-0.41-2.645c-1.064-5.959-2.576-11.83-4.523-17.562    l-0.529-1.434c-4.282-12.001-10.453-23.241-18.278-33.297c-0.137-0.171-0.222-0.358-0.358-0.529    c12.965-7.566,27.707-11.553,42.718-11.554c47.062-0.052,85.256,38.057,85.309,85.119c0.037,33.564-19.631,64.023-50.237,77.799    c-1.314,0.597-2.628,1.143-3.959,1.707c-4.212,1.699-8.556,3.051-12.988,4.045c-0.853,0.188-1.707,0.29-2.577,0.461    c-4.952,0.949-9.977,1.457-15.019,1.519c-2.27,0-4.557-0.171-6.827-0.375c-0.853,0-1.707,0-2.56-0.171    c-9.7-1.142-19.136-3.923-27.904-8.226C270.116,221.566,269.74,221.583,269.416,221.447z M443.735,418.242h-102.4v-34.133    c0-5.342-0.307-10.633-0.785-15.872c-0.137-1.536-0.375-3.055-0.546-4.591c-0.461-3.772-0.99-7.509-1.707-11.213    c-0.307-1.581-0.631-3.169-0.973-4.762c-0.819-3.8-1.769-7.566-2.85-11.298c-0.358-1.229-0.683-2.475-1.058-3.686    c-4.779-15.277-11.704-29.797-20.565-43.127l-0.666-0.973c-2.935-4.358-6.07-8.573-9.404-12.646l-0.119-0.154    c-3.413-4.232-7.117-8.346-11.008-12.237c0.222,0,0.461,0,0.7,0c4.816,0.633,9.666,0.975,14.524,1.024h0.939    c4.496-0.039,8.985-0.33,13.449-0.87c1.399-0.171,2.782-0.427,4.181-0.649c3.63-0.557,7.214-1.28,10.752-2.167    c1.007-0.256,2.031-0.495,3.055-0.785c4.643-1.263,9.203-2.814,13.653-4.642c54.612,19.127,91.083,70.785,90.829,128.649V418.242z    " data-original="#000000" class="active-path" data-old_color="#000000" fill="#fff"/>
	</g>
</g></g> </svg>
