<?xml version="1.0"?>
<svg xmlns="http://www.w3.org/2000/svg" id="Layer_1" height="512px" viewBox="0 0 512 512" width="512px" data-name="Layer 1"><g transform="matrix(1, 0, 0, 1, 0, 0)"><path d="m322.976 178.733a6.241 6.241 0 0 1 -3.976-5.518v-83.215h14.984a6.266 6.266 0 0 0 6.016-6.287v-67.588a6.123 6.123 0 0 0 -6.016-6.125h-155.968a6.123 6.123 0 0 0 -6.016 6.125v67.588a6.266 6.266 0 0 0 6.016 6.287h12.984v83.324a5.69 5.69 0 0 1 -3.389 5.424c-65.85 28.059-97.736 71.384-97.736 132.064a6.27 6.27 0 0 0 6.125 6.188h153v185h12v-185h155a6.058 6.058 0 0 0 5.875-6.188c0-60.874-32.435-104.203-98.899-132.079zm-138.976-156.733h144v56h-144zm225.886 283h-307.772c1.043-27 9.236-49.85 24.957-69.2 14.975-18.436 36.148-33.518 65.243-45.916a17.8 17.8 0 0 0 10.686-16.56v-83.324h104v83.215a18.207 18.207 0 0 0 11.334 16.585c29.472 12.36 51.266 27.537 66.372 46.011 15.785 19.304 24.134 42.189 25.18 69.189z" data-original="#000000" class="active-path" fill="#fff"/></g> </svg>
