<?xml version="1.0"?>
<svg xmlns="http://www.w3.org/2000/svg" height="512px" viewBox="-15 0 512 512.00104" width="512px"><g><path d="m277.40625 290.925781v-147.324219h61.363281c5.761719 0 10.441407-4.667968 10.441407-10.441406v-50.910156c0-5.773438-4.679688-10.441406-10.441407-10.441406h-61.363281v-61.367188c0-5.773437-4.679688-10.441406-10.445312-10.441406h-50.921876c-5.761718 0-10.441406 4.667969-10.441406 10.441406v61.367188h-61.363281c-5.765625 0-10.445313 4.667968-10.445313 10.441406v50.910156c0 5.773438 4.679688 10.441406 10.445313 10.441406h61.363281v147.324219c10.007813 8.09375 23.855469 18.542969 35.902344 39.777344 12.066406-21.269531 26.109375-31.855469 35.90625-39.777344zm0 0" data-original="#000000" class="active-path" data-old_color="#000000" fill="#FFFFFF"/><path d="m225.835938 382.667969v129.332031h-89.527344v-64.800781c-.640625-10.367188-2.917969-19.96875-10.84375-26.246094-7.230469-5.738281-46.582032-33.21875-88.179688-65.871094-13.5625-10.644531-22.832031-25.808593-26.105468-42.738281l-11.039063-57.011719c-1.296875-11.09375 6.660156-21.230469 17.84375-22.527343 11.148437-1.285157 21.238281 6.699218 22.53125 17.847656l11.394531 49.355468c1.023438 4.476563 3.574219 8.453126 7.199219 11.261719l54.515625 38.988281c7.105469 5.480469 17.335938 4.601563 23.390625-2.132812 6.597656-7.335938 5.738281-18.699219-1.886719-24.945312l-20.902344-17.132813c-7.578124-6.121094-9.046874-17.128906-3.347656-25.023437 6.125-8.484376 18.085938-10.140626 26.292969-3.648438.050781.042969 59.898437 47.464844 59.890625 47.453125 17.710938 14.035156 28.265625 35.238281 28.773438 57.839844zm0 0" data-original="#000000" class="active-path" data-old_color="#000000" fill="#FFFFFF"/><path d="m482.863281 255.332031-11.042969 57.011719c-3.269531 16.929688-12.542968 32.09375-26.101562 42.738281-41.597656 32.652344-80.949219 60.132813-88.179688 65.871094-7.925781 6.277344-10.203124 15.878906-10.84375 26.25v64.796875h-89.527343v-129.332031c.507812-22.601563 11.0625-43.804688 28.773437-57.839844-.007812.007813 59.839844-47.410156 59.894532-47.453125 8.203124-6.492188 20.167968-4.835938 26.289062 3.644531 5.703125 7.898438 4.230469 18.90625-3.347656 25.027344l-20.902344 17.132813c-7.621094 6.246093-8.484375 17.609374-1.882812 24.941406 6.050781 6.738281 16.285156 7.617187 23.386718 2.136718l54.519532-38.988281c3.625-2.808593 6.171874-6.785156 7.199218-11.261719l11.394532-49.355468c1.292968-11.148438 11.382812-19.132813 22.527343-17.847656 11.183594 1.296874 19.140625 11.4375 17.84375 22.527343zm0 0" data-original="#000000" class="active-path" data-old_color="#000000" fill="#FFFFFF"/></g> </svg>
