<?xml version="1.0" standalone="no"?>
<!DOCTYPE svg PUBLIC "-//W3C//DTD SVG 20010904//EN"
 "http://www.w3.org/TR/2001/REC-SVG-20010904/DTD/svg10.dtd">
<svg version="1.0" xmlns="http://www.w3.org/2000/svg"
 width="225.000000pt" height="225.000000pt" viewBox="0 0 225.000000 225.000000"
 preserveAspectRatio="xMidYMid meet">
<metadata>
Created by potrace 1.15, written by Peter Selinger 2001-2017
</metadata>
<g transform="translate(0.000000,225.000000) scale(0.100000,-0.100000)"
fill="#000000" stroke="none">
<path d="M1190 2240 c-124 -4 -300 -15 -392 -25 -155 -17 -169 -17 -207 -1
-33 13 -78 16 -224 16 -170 0 -186 -2 -227 -22 -26 -14 -57 -41 -75 -66 l-30
-44 0 -441 c0 -498 -3 -475 78 -541 l39 -31 202 -3 c110 -2 212 1 226 6 22 8
27 4 53 -37 16 -25 57 -75 92 -111 34 -36 83 -97 107 -135 58 -89 157 -286
214 -426 37 -91 44 -119 44 -175 0 -85 15 -136 52 -171 26 -25 37 -28 91 -27
143 1 249 93 278 242 15 81 1 189 -46 344 -35 117 -60 236 -51 245 3 3 54 -3
113 -13 146 -25 356 -25 437 -1 156 48 232 155 208 296 -10 60 -9 67 15 115
39 75 38 164 -3 243 -26 50 -29 64 -21 93 21 82 -6 194 -66 266 -17 21 -26 47
-30 92 -16 150 -121 252 -309 297 -80 20 -282 25 -568 15z m546 -140 c88 -22
147 -58 182 -110 21 -31 23 -43 19 -101 l-6 -66 49 -51 c60 -63 77 -115 60
-176 -25 -87 -24 -95 10 -143 42 -59 50 -115 22 -169 -11 -22 -28 -46 -36 -53
-20 -17 -20 -58 -1 -91 8 -14 14 -45 15 -68 0 -58 -43 -103 -120 -126 -86 -26
-265 -21 -420 10 -120 24 -130 24 -159 10 -77 -40 -81 -158 -11 -391 53 -180
63 -292 31 -357 -23 -48 -80 -88 -125 -88 -32 0 -41 29 -33 102 6 45 1 65 -45
177 -63 157 -171 372 -237 472 -28 42 -79 107 -115 145 -115 122 -109 85 -107
602 1 246 3 447 4 449 5 5 189 24 307 32 69 4 240 9 381 10 226 1 265 -1 335
-19z m-1177 -14 c21 -19 21 -25 21 -432 0 -412 0 -413 -22 -434 -20 -18 -35
-20 -184 -20 -148 0 -163 2 -188 21 l-26 20 0 413 c0 381 1 414 18 428 29 26
41 27 203 25 139 -2 159 -4 178 -21z"/>
</g>
</svg>
