<?xml version="1.0"?>
<svg xmlns="http://www.w3.org/2000/svg" xmlns:xlink="http://www.w3.org/1999/xlink" version="1.1" id="Capa_1" x="0px" y="0px" width="512px" height="512px" viewBox="0 0 792 792" style="enable-background:new 0 0 792 792;" xml:space="preserve" class=""><g><g>
	<g>
		<path d="M109.548,0c0,0-18.468,0-18.468,17.604V774.36c0,17.64,18.468,17.64,18.468,17.64h572.903c0,0,18.469,0,18.469-17.604V180    H548.461c0,0-38.125,0-38.125-36V0H109.548z M205.452,108H434.16v36H205.452V108z M205.452,216H434.16v36H205.452V216z     M586.619,684H205.452v-36h381.167V684z M586.619,576H205.452v-36h381.167V576z M586.619,468H205.452v-36h381.167V468z     M586.619,324v36H205.452v-36H586.619z" data-original="#000000" class="active-path" data-old_color="#000000" fill="#FFFFFF"/>
		<polygon points="548.496,144 685.836,144 548.496,13.212   " data-original="#000000" class="active-path" data-old_color="#000000" fill="#FFFFFF"/>
	</g>
</g></g> </svg>
