<?xml version="1.0"?>
<svg xmlns="http://www.w3.org/2000/svg" id="Layer_1" enable-background="new 0 0 60 50" height="512px" viewBox="0 0 60 50" width="512px" class=""><g><path d="m38.692 37.25-18.662-20.995-14 15.75v11.995h26.662z" data-original="#000000" class="active-path" data-old_color="#000000" fill="#FFFFFF"/><circle cx="41.03" cy="16" r="3" data-original="#000000" class="active-path" data-old_color="#000000" fill="#FFFFFF"/><path d="m19.283 14.085c.379-.427 1.115-.427 1.495 0l19.252 21.659 7.253-8.159c.379-.427 1.115-.427 1.495 0l5.252 5.909v-27.494h-48v22.995zm21.747-3.085c2.757 0 5 2.243 5 5s-2.243 5-5 5-5-2.243-5-5 2.243-5 5-5z" data-original="#000000" class="active-path" data-old_color="#000000" fill="#FFFFFF"/><path d="m40.777 37.914v.001l-5.409 6.085h18.662v-7.495l-6-6.75z" data-original="#000000" class="active-path" data-old_color="#000000" fill="#FFFFFF"/><path d="m59.03 0h-58c-.552 0-1 .448-1 1v48c0 .552.448 1 1 1h58c.552 0 1-.448 1-1v-48c0-.552-.448-1-1-1zm-3 36.125v8.875c0 .552-.448 1-1 1h-21.889-28.111c-.552 0-1-.448-1-1v-13.375-26.625c0-.552.448-1 1-1h50c.552 0 1 .448 1 1z" data-original="#000000" class="active-path" data-old_color="#000000" fill="#FFFFFF"/></g> </svg>
