<?xml version="1.0"?>
<svg xmlns="http://www.w3.org/2000/svg" id="Layer_1" enable-background="new 0 0 512 512" height="512px" viewBox="0 0 512 512" width="512px"><g><path d="m181 356.391v34.609h-60v60h60v61h60v-61h60v-60h-60v-34.609c60.07-13.678 105-67.18 105-131.391 0-26.389-7.87-50.817-20.958-71.614l50.958-50.959v17.573h60v-120h-120v60h17.573l-50.958 50.958c-20.798-13.088-45.226-20.958-71.615-20.958-74.559 0-135 60.441-135 135 0 64.211 44.93 117.713 105 131.391zm30-206.391c41.353 0 75 33.647 75 75s-33.647 75-75 75-75-33.647-75-75 33.647-75 75-75z" data-original="#000000" class="active-path" fill="#2d3748"/></g> </svg>
