<?xml version="1.0"?>
<svg xmlns="http://www.w3.org/2000/svg" xmlns:xlink="http://www.w3.org/1999/xlink" version="1.1" id="Layer_1" x="0px" y="0px" viewBox="0 0 512 512" style="enable-background:new 0 0 512 512;" xml:space="preserve" width="512px" height="512px"><g><g>
	<g>
		<g>
			<path d="M469.334,170.671h-5.926l-73.272-127.99c-5.677-9.896-14.844-16.969-25.813-19.906     c-4.078-1.089-8.225-1.558-12.331-1.422c-6.885,0.229-13.652,2.161-19.773,5.724L21.157,208.171     C7.546,216.092-0.063,230.539,0,245.339c0.03,7.152,1.865,14.387,5.656,21.009L64,368.257v79.747     c0,23.531,19.135,42.667,42.667,42.667h362.667c23.531,0,42.667-19.135,42.667-42.667V213.337     C512,189.806,492.865,170.671,469.334,170.671z M64,325.302l-8.147-14.232L64,306.327V325.302z M64,281.643l-18.747,10.914     l-10.531-18.396L64,257.117V281.643z M64,213.337v19.096l-39.858,23.203c-5.762-10.172-2.306-23.173,7.743-29.029l32.698-19.035     C64.323,209.477,64,211.363,64,213.337z M438.817,170.671H296.998l106.366-61.928L438.817,170.671z M392.765,90.229     l-138.163,80.441h-42.124l169.758-98.833L392.765,90.229z M342.959,45.514c4.833-2.813,10.458-3.594,15.844-2.135     c5.448,1.458,9.99,4.979,12.813,9.906l0.022,0.039L170.081,170.671h-42.109L342.959,45.514z M490.667,448.004     c0,11.76-9.573,21.333-21.333,21.333H106.667c-11.76,0-21.333-9.573-21.333-21.333V213.337c0-11.76,9.573-21.333,21.333-21.333     h362.667c11.76,0,21.333,9.573,21.333,21.333V448.004z" data-original="#000000" class="active-path" fill="#fff"/>
			<path d="M404,341.337c-7,0-13.802,1.625-20,4.75c-6.198-3.125-13-4.75-20-4.75c-24.26,0-44,19.135-44,42.667     s19.74,42.667,44,42.667c7,0,13.802-1.625,20-4.75c6.198,3.125,13,4.75,20,4.75c24.26,0,44-19.135,44-42.667     S428.261,341.337,404,341.337z M404,405.337c-4.927,0-9.667-1.563-13.74-4.51c-1.865-1.354-4.063-2.031-6.26-2.031     c-2.198,0-4.396,0.677-6.26,2.031c-4.073,2.948-8.813,4.51-13.74,4.51c-12.5,0-22.667-9.573-22.667-21.333     S351.5,362.671,364,362.671c4.927,0,9.667,1.563,13.74,4.51c3.729,2.708,8.792,2.708,12.521,0c4.073-2.948,8.813-4.51,13.74-4.51     c12.5,0,22.667,9.573,22.667,21.333S416.5,405.337,404,405.337z" data-original="#000000" class="active-path" fill="#fff"/>
			<path d="M138.667,362.671h106.667c5.896,0,10.667-4.771,10.667-10.667s-4.771-10.667-10.667-10.667H138.667     c-5.896,0-10.667,4.771-10.667,10.667S132.771,362.671,138.667,362.671z" data-original="#000000" class="active-path" fill="#fff"/>
			<path d="M288,405.337H138.667c-5.896,0-10.667,4.771-10.667,10.667s4.771,10.667,10.667,10.667H288     c5.896,0,10.667-4.771,10.667-10.667S293.896,405.337,288,405.337z" data-original="#000000" class="active-path" fill="#fff"/>
		</g>
	</g>
</g></g> </svg>
