<?xml version="1.0" standalone="no"?>
<!DOCTYPE svg PUBLIC "-//W3C//DTD SVG 20010904//EN"
 "http://www.w3.org/TR/2001/REC-SVG-20010904/DTD/svg10.dtd">
<svg version="1.0" xmlns="http://www.w3.org/2000/svg"
 width="512.000000pt" height="512.000000pt" viewBox="0 0 512.000000 512.000000"
 preserveAspectRatio="xMidYMid meet">
<metadata>
Created by potrace 1.15, written by Peter Selinger 2001-2017
</metadata>
<g transform="translate(0.000000,512.000000) scale(0.100000,-0.100000)"
fill="#000000" stroke="none">
<path d="M2425 5106 c-133 -42 -243 -137 -302 -261 -32 -68 -37 -88 -45 -198
-20 -277 -69 -490 -149 -649 -120 -240 -300 -415 -560 -544 l-96 -47 -48 33
c-26 18 -78 43 -114 56 -64 23 -76 24 -392 24 -268 0 -335 -3 -380 -16 -148
-43 -274 -168 -320 -315 -18 -58 -19 -114 -19 -1429 0 -1315 1 -1371 19 -1429
46 -149 173 -273 323 -316 48 -14 106 -16 400 -13 l344 3 75 37 c81 40 165
116 206 186 17 29 30 41 42 38 100 -30 725 -173 857 -197 335 -60 369 -62
1093 -66 753 -5 755 -5 891 63 135 68 232 182 290 341 40 110 53 198 42 282
l-9 65 66 66 c80 80 121 147 166 272 65 181 81 329 49 454 l-15 63 47 58 c61
74 118 196 145 309 30 125 24 289 -14 387 l-26 67 39 61 c70 109 85 170 85
354 0 180 -10 226 -72 328 -95 156 -256 259 -460 292 -116 19 -383 33 -852 45
-223 6 -406 12 -409 14 -2 2 3 42 10 88 8 53 13 177 13 348 0 255 -1 269 -27
370 -97 381 -348 691 -627 774 -65 19 -208 20 -266 2z m222 -338 c144 -77 283
-276 345 -493 21 -74 23 -99 23 -325 0 -283 -6 -324 -85 -579 -28 -90 -48
-166 -45 -169 3 -3 328 -9 723 -13 394 -4 759 -13 810 -18 209 -24 297 -65
345 -163 26 -51 29 -67 28 -149 -1 -122 -13 -162 -64 -213 -68 -67 -112 -77
-381 -83 -260 -7 -266 -8 -266 -83 0 -74 8 -77 246 -82 189 -4 214 -6 259 -27
65 -29 83 -46 111 -106 57 -121 6 -328 -104 -425 -74 -66 -105 -72 -386 -77
-282 -6 -286 -7 -286 -83 0 -74 8 -77 251 -82 231 -6 267 -13 318 -61 62 -58
65 -153 12 -312 -35 -103 -70 -158 -126 -197 -64 -44 -139 -58 -355 -64 -107
-3 -205 -7 -218 -10 -13 -3 -29 -18 -39 -39 -16 -33 -16 -37 0 -70 10 -20 26
-36 39 -39 13 -3 93 -7 178 -9 85 -2 167 -9 182 -15 68 -28 110 -122 89 -200
-33 -122 -92 -199 -179 -234 l-57 -23 -580 0 c-625 1 -738 7 -1055 61 -262 44
-978 215 -1026 245 -68 42 -63 -52 -64 1213 -1 1057 0 1148 16 1181 19 41 55
69 113 90 71 25 221 103 305 159 224 149 381 331 502 581 105 216 157 424 174
691 9 149 21 182 80 221 44 30 111 31 167 1z m-1618 -1593 c44 -26 70 -62 81
-111 12 -52 12 -2556 0 -2608 -11 -49 -37 -85 -81 -111 -32 -19 -52 -20 -309
-20 -259 0 -277 1 -310 21 -48 28 -78 75 -85 137 -3 29 -5 624 -3 1322 3 1249
3 1271 23 1304 25 42 62 70 106 81 19 5 149 8 289 7 235 -2 258 -4 289 -22z"/>
<path d="M615 941 c-87 -40 -135 -120 -135 -223 1 -142 97 -238 240 -238 144
0 240 96 240 240 0 104 -53 187 -142 224 -52 22 -153 20 -203 -3z m155 -171
c11 -11 20 -33 20 -50 0 -17 -9 -39 -20 -50 -44 -44 -120 -11 -120 52 0 17 7
40 17 50 22 24 77 24 103 -2z"/>
</g>
</svg>
