<?xml version="1.0"?>
<svg xmlns="http://www.w3.org/2000/svg" xmlns:xlink="http://www.w3.org/1999/xlink" version="1.1" id="Capa_1" x="0px" y="0px" width="512px" height="512px" viewBox="0 0 217.012 217.012" style="enable-background:new 0 0 217.012 217.012;" xml:space="preserve"><g><g>
	<path d="M185.946,69.464l-9.043-34.895c-0.836-3.225-4.14-5.168-7.363-4.332l-43.777,11.346l-9.604-37.057   c-0.836-3.225-4.139-5.168-7.363-4.332L73.902,9.237c-3.225,0.836-5.167,4.139-4.332,7.363l9.604,37.057L35.398,65.003   c-3.225,0.836-5.168,4.139-4.332,7.362l9.043,34.895c0.836,3.225,4.139,5.167,7.363,4.332l43.777-11.347l29.089,112.24   c0.835,3.225,4.14,5.168,7.362,4.332l34.895-9.043c3.226-0.836,5.167-4.141,4.332-7.363l-29.09-112.24l43.777-11.346   C184.838,75.99,186.782,72.687,185.946,69.464z" data-original="#000000" class="active-path" data-old_color="#000000" fill="#FFFFFF"/>
</g></g> </svg>
