<?xml version="1.0"?>
<svg xmlns="http://www.w3.org/2000/svg" xmlns:xlink="http://www.w3.org/1999/xlink" version="1.1" id="Capa_1" x="0px" y="0px" viewBox="0 0 192.363 192.363" style="enable-background:new 0 0 192.363 192.363;" xml:space="preserve" width="512px" height="512px"><g><path d="M183.84,138.048l-12.051-11.944c0.306-3.177,0.435-5.617,0.435-6.617c0-13.222-5.207-23.191-12.111-23.191  c-3.996,0-7.421,3.344-9.599,8.722l-23.088-22.883c0.034-0.602,0.055-1.207,0.055-1.818c0-10.898-5.467-20.527-13.771-26.229  c-0.559-2.524-1.069-4.77-1.504-6.648c-2.805-12.123-5.776-23.578-8.367-32.255C99.509,0.676,98.236,0,96.182,0  c-2.044,0-3.519,0.733-7.877,15.178c-2.58,8.553-5.546,20.012-8.353,32.268c-0.524,2.288-1.03,4.556-1.522,6.805  c-8.175,5.72-13.544,15.268-13.544,26.066c0,0.609,0.021,1.213,0.055,1.814l-23.089,22.884c-2.178-5.375-5.602-8.718-9.598-8.718  c-6.904,0-12.111,9.97-12.111,23.191c0,0.999,0.129,3.437,0.435,6.612L8.522,138.048c-1.081,1.072-2.244,3.021-2.244,4.769  c0,2.245,1.931,4.004,4.395,4.004l13.519-0.554c1.851,6.113,4.458,10.83,8.062,10.83c3.733,0,6.394-5.067,8.255-11.499l27.046-1.109  c1.599,3.654,3.856,6.949,6.626,9.724v7.03L62.22,172.443c-1,0.943-1.538,2.48-1.339,3.824l1.986,13.409  c0.234,1.582,1.463,2.687,2.987,2.687c0.677,0,1.34-0.226,1.919-0.651l16.099-11.847c0.086-0.052,0.308-0.125,0.362-0.134  l23.866-0.053c0.099,0.01,0.317,0.08,0.367,0.106l16.266,11.922c0.576,0.423,1.237,0.646,1.91,0.646  c1.529,0,2.761-1.109,2.994-2.694l1.986-13.428c0.199-1.347-0.327-2.834-1.346-3.793l-12.096-11.331v-6.892  c2.772-2.775,5.031-6.071,6.631-9.727l27.047,1.111c1.861,6.431,4.522,11.496,8.255,11.496c3.603,0,6.21-4.715,8.061-10.826  l13.31,0.547l0.206,0.004c2.464,0,4.395-1.759,4.395-4.004C186.085,141.069,184.922,139.12,183.84,138.048z M104.043,61.257H88.552  c-2.473,0-2.093-2.053-1.867-3.168c3.53-17.395,6.769-32.438,9.464-32.438c2.84,0,5.797,14.992,9.323,32.303  C105.713,59.135,106.386,61.257,104.043,61.257z" data-original="#000000" class="active-path" data-old_color="#000000" fill="#FFFFFF"/></g> </svg>
