<?xml version="1.0"?>
<svg xmlns="http://www.w3.org/2000/svg" viewBox="0 0 512 512.00027" width="512px" height="512px"><g><path d="m1.53125 277.109375c5.375 20.082031 23.613281 33.355469 43.476562 33.355469.777344 0 1.574219-.273438 2.355469-.3125 2.0625 3.875 4.257813 7.660156 6.582031 11.390625-11.460937 17.460937-9.546874 41.058593 5.828126 56.433593 13.1875 13.1875 34.390624 18.828126 55.59375 5.332032 3.914062 2.46875 7.914062 4.753906 11.992187 6.9375-1.167969 20.824218 12.359375 40.367187 33.265625 45.957031 20.773438 5.566406 41.238281-4.421875 50.929688-22.671875 2.441406.089844 4.871093.347656 7.3125.347656 2.539062 0 5.066406-.265625 7.605468-.363281 3.914063 7.359375 9.085938 13.925781 16.476563 18.203125 21.527343 12.398438 49.019531 5.074219 61.476562-16.476562 4.421875-7.664063 6.410157-16.265626 5.929688-24.910157 23.027343-12.285156 19.957031-11.832031 23.09375-14.117187l18.859375 18.929687-36.207032 36.210938 42.417969 42.433593 36.210938-36.207031 74.621093 74.417969 42.4375-42.4375-74.621093-74.417969 36.207031-36.210937-42.433594-42.421875-36.210937 36.210937-18.871094-18.800781c2.421875-3.300781 2.171875-.382813 14.589844-23.757813 22.578125 1.207032 40.5-13.488281 45.734375-33.054687 4.785156-17.78125-.722656-38.949219-22.691406-50.621094.199218-5.074219.199218-10.132812 0-15.207031 21.511718-11.441406 27.601562-32.355469 22.691406-50.636719-5.585938-20.890625-25.15625-34.4375-45.957032-33.273437-2.179687-4.078125-4.46875-8.070313-6.933593-11.988282 11.074219-17.398437 9.84375-40.414062-5.332031-55.589843-14.640626-14.65625-38.265626-15.875-55.5-5.289063-3.953126-2.492187-7.984376-4.792968-12.097657-6.992187 1.160157-20.808594-12.359375-40.351563-33.269531-45.960938-20.757812-5.59375-41.9375 4.394531-51.46875 22.660157-4.511719-.15625-9.007812-.15625-13.519531 0-9.535157-18.265626-30.746094-28.203126-51.480469-22.660157-20.902344 5.613281-34.417969 25.15625-33.261719 45.972657-4.082031 2.175781-8.078125 4.464843-11.996093 6.9375-17.398438-11.078126-40.414063-9.847657-55.59375 5.332031-15.179688 15.175781-16.410157 38.195312-5.332032 55.589843-2.46875 3.917969-4.753906 7.914063-6.933594 11.992188-20.78125-1.160156-40.363281 12.371094-45.972656 33.28125-5.535156 20.707031 4.410156 41.917969 22.667969 51.464844-.15625 4.515625-.15625 9.007812-.003906 13.519531-18.257813 9.542969-28.210938 30.757813-22.667969 51.46875zm53.070312-61.402344c15.839844-3.542969 29.375-15.03125 33.867188-31.757812 4.5-16.773438-1.292969-33.773438-13.300781-44.761719.976562-1.757812 1.972656-3.492188 3.011719-5.214844 17.878906 5.589844 33.648437 1.019532 45.222656-10.550781 12.246094-12.246094 15.402344-29.742187 10.554687-45.222656 1.832031-1.109375 3.675781-2.171875 5.550781-3.207031 11.300782 12.292968 27.558594 18.011718 44.421876 13.496093 16.746093-4.5 28.574218-17.996093 32.09375-33.867187 1.894531-.035156 3.777343-.035156 5.671874 0 3.515626 15.867187 15.335938 29.367187 32.105469 33.867187 15.46875 4.144531 31.355469.769531 44.425781-13.488281 1.871094 1.035156 3.707032 2.097656 5.539063 3.203125-4.84375 15.484375-1.691406 32.984375 10.546875 45.21875 11.167969 11.167969 27.890625 16.449219 45.425781 10.878906.972657 1.617188 1.90625 3.242188 2.824219 4.890625-12.007812 10.984375-17.800781 27.988282-13.300781 44.757813 4.492187 16.730469 18.023437 28.21875 33.867187 31.757812.035156 2 .03125 3.984375 0 5.984375-15.882812 3.507813-29.367187 15.363282-33.867187 32.128906-4.28125 15.941407-.3125 31.773438 13.484375 44.425782-6.125 11.09375-10.636719 20.601562-26.941406 37.019531-16.609376 16.644531-31.707032 24.261719-37.578126 27.5-3.070312-3.347656-6.234374-6.652344-10.28125-8.988281-26.128906-15.109375-59.578124-.761719-66.25 29.371094-1.890624.03125-3.777343.03125-5.671874 0-3.515626-15.875-15.34375-29.371094-32.09375-33.867188-16.707032-4.480469-33.734376 1.296875-44.746094 13.308594-1.652344-.917969-3.277344-1.859375-4.902344-2.832032 5.476562-17.238281.519531-34.035156-10.878906-45.414062-12.234375-12.246094-29.730469-15.394531-45.214844-10.554688-1.105469-1.832031-2.171875-3.671874-3.203125-5.542968 3.347656-3.070313 6.652344-6.234375 8.988281-10.28125 6.019532-10.398438 7.617188-22.527344 4.496094-34.144532-4.496094-16.753906-18.003906-28.542968-33.867188-32.066406-.03125-2.019531-.039062-4.027344 0-6.046875zm0 0" data-original="#000000" class="active-path" data-old_color="#000000" fill="#FFFFFF"/></g> </svg>
