<?xml version="1.0"?>
<svg xmlns="http://www.w3.org/2000/svg" xmlns:xlink="http://www.w3.org/1999/xlink" version="1.1" id="Capa_1" x="0px" y="0px" viewBox="0 0 406.318 406.318" style="enable-background:new 0 0 406.318 406.318;" xml:space="preserve" width="512px" height="512px"><g transform="matrix(-1, -2.46519e-32, -2.46519e-32, 1, 406.318, 5.68434e-14)"><path d="M329.006,366.124h-46.602c-2.757,0-5-2.243-5-5V246.129c0-5.333,3.632-9.553,5.491-11.051  c26.548-21.398,37.339-42.187,27.972-77.221l-0.036-0.141c-0.397-1.608-1.236-2.423-2.493-2.423c-0.66,0-1.363,0.258-2.149,0.79  l-23.417,15.814c-4.171,2.817-8.992,4.368-13.574,4.368c-5.498,0-10.145-2.213-12.75-6.071c-2.375-3.518-2.862-8.031-1.369-12.71  c1.533-4.806,4.951-9.19,9.623-12.345l27.733-18.729l0.174-0.137c0.858-0.786,2.037-2.932,0.354-5.423l-11.175-16.547  c-0.687-1.017-1.7-1.577-2.852-1.577c-1.316,0-2.366,0.72-2.516,0.832l-27.333,18.459c-4.171,2.816-8.992,4.368-13.574,4.368  c-5.497,0-10.145-2.213-12.75-6.071c-2.375-3.517-2.861-8.031-1.369-12.71c1.533-4.806,4.95-9.19,9.622-12.345l26.178-17.679  c0.401-0.241,2.295-1.472,2.749-3.439c0.246-1.066,0.025-2.149-0.639-3.132l-10.932-16.188c-0.738-1.093-1.871-1.694-3.189-1.694  c-1.459,0-2.708,0.735-2.905,0.857l-26.877,18.15c-4.171,2.817-8.992,4.368-13.574,4.368c-5.497,0-10.144-2.213-12.75-6.071  c-4.982-7.377-1.28-18.618,8.253-25.056l23.657-15.976c1.648-1.113,2.057-2.531,2.109-3.524c0.174-3.313-3.199-6.325-3.877-6.895  C204.03,6.208,189.223,0,173.95,0c-17.202,0-35.581,7.456-61.455,24.929C89.377,40.542,75.829,54,68.569,68.568  c-8.292,16.639-8.341,34.716-0.155,56.89c0.577,1.562,2.103,3.138,4.212,3.138c0.973,0,1.963-0.336,2.944-0.998l24.196-16.341  c4.171-2.817,8.992-4.368,13.574-4.368c5.497,0,10.145,2.213,12.75,6.071c2.375,3.517,2.861,8.031,1.369,12.71  c-1.533,4.806-4.95,9.19-9.622,12.345l-27.01,18.243c-0.178,0.107-1.751,1.1-2.127,2.807c-0.211,0.958-0.004,1.936,0.598,2.827  l11.346,16.801c0.743,1.101,1.815,1.707,3.02,1.707c1.287,0,2.3-0.676,2.588-0.89l27.202-18.37  c4.171-2.816,8.992-4.368,13.574-4.368c5.498,0,10.145,2.213,12.75,6.071c2.375,3.518,2.862,8.031,1.369,12.71  c-1.533,4.806-4.95,9.19-9.622,12.345l-26.306,17.766c-1.726,1.23-3.543,4.171-1.478,7.23l10.204,15.109  c0.827,1.224,2.068,1.897,3.498,1.897c1.681,0,3.102-0.918,3.264-1.026l26.435-17.853c4.171-2.817,8.992-4.368,13.574-4.368  c5.497,0,10.145,2.213,12.75,6.071c4.982,7.378,1.279,18.618-8.253,25.055l-23.077,15.585c-1.267,0.855-1.549,1.867-1.562,2.565  c-0.029,1.512,1.136,2.687,2.118,3.406c13.906,10.192,27.099,15.147,40.333,15.147c7.961,0,15.902-1.767,24.094-4.933  c2.731-1.055,8.285-3.921,8.285,6.579v84.994c0,2.757-2.243,5-5,5h-46.602c-8.271,0-15,6.729-15,15v10.195c0,8.271,6.729,15,15,15  h145.204c8.271,0,15-6.729,15-15v-10.195C344.006,372.853,337.277,366.124,329.006,366.124z" data-original="#000000" class="active-path" fill="#fff"/></g> </svg>
