<?xml version="1.0"?>
<svg xmlns="http://www.w3.org/2000/svg" height="512px" viewBox="0 0 512 512" width="512px"><g><path d="m150 60c0-33.085938-26.914062-60-60-60s-60 26.914062-60 60 26.914062 60 60 60 60-26.914062 60-60zm-60 30c-16.542969 0-30-13.457031-30-30s13.457031-30 30-30 30 13.457031 30 30-13.457031 30-30 30zm0 0" data-original="#000000" class="active-path" data-old_color="#000000" fill="#4a5568"/><path d="m300 347c0-24.8125-20.1875-45-45-45s-45 20.1875-45 45 20.1875 45 45 45 45-20.1875 45-45zm-45 15c-8.269531 0-15-6.730469-15-15s6.730469-15 15-15 15 6.730469 15 15-6.730469 15-15 15zm0 0" data-original="#000000" class="active-path" data-old_color="#000000" fill="#4a5568"/><path d="m420 347c0-24.8125-20.1875-45-45-45s-45 20.1875-45 45 20.1875 45 45 45 45-20.1875 45-45zm-45 15c-8.269531 0-15-6.730469-15-15s6.730469-15 15-15 15 6.730469 15 15-6.730469 15-15 15zm0 0" data-original="#000000" class="active-path" data-old_color="#000000" fill="#4a5568"/><path d="m497 0h-302c-8.285156 0-15 6.714844-15 15v105h-105c-41.355469 0-75 33.644531-75 75v302c0 8.285156 6.714844 15 15 15h420c8.285156 0 15-6.714844 15-15v-30c0-41.355469-33.644531-75-75-75-24.507812 0-46.304688 11.816406-60 30.050781-13.695312-18.234375-35.492188-30.050781-60-30.050781s-46.304688 11.816406-60 30.050781c-13.695312-18.234375-35.492188-30.050781-60-30.050781-41.355469 0-75 33.644531-75 75v15h-30v-287c0-24.8125 20.1875-45 45-45h180c8.269531 0 15 6.730469 15 15s-6.730469 15-15 15h-120c-8.285156 0-15 6.714844-15 15v109.578125c-17.460938 6.195313-30 22.867187-30 42.421875 0 24.8125 20.1875 45 45 45s45-20.1875 45-45c0-19.554688-12.539062-36.226562-30-42.421875v-94.578125h30v46c0 8.285156 6.714844 15 15 15h302c8.285156 0 15-6.714844 15-15v-241c0-8.285156-6.714844-15-15-15zm-122 422c24.8125 0 45 20.1875 45 45v15h-90v-15c0-24.8125 20.1875-45 45-45zm-120 0c24.8125 0 45 20.1875 45 45v15h-90v-15c0-24.8125 20.1875-45 45-45zm-165 45c0-24.8125 20.1875-45 45-45s45 20.1875 45 45v15h-90zm45-105c-8.269531 0-15-6.730469-15-15s6.730469-15 15-15 15 6.730469 15 15-6.730469 15-15 15zm347-121h-272v-31h45c24.8125 0 45-20.1875 45-45 0-1.882812-.128906-3.730469-.355469-5.550781l142.0625-71.03125c7.410157-3.707031 10.414063-12.714844 6.707031-20.125-3.703124-7.410157-12.714843-10.414063-20.125-6.707031l-142.082031 71.039062c-8.097656-7.808594-19.097656-12.625-31.207031-12.625h-45v-90h272zm0 0" data-original="#000000" class="active-path" data-old_color="#000000" fill="#4a5568"/></g> </svg>
