<?xml version="1.0"?>
<svg xmlns="http://www.w3.org/2000/svg" xmlns:xlink="http://www.w3.org/1999/xlink" version="1.1" id="Layer_1" x="0px" y="0px" viewBox="0 0 503.996 503.996" style="enable-background:new 0 0 503.996 503.996;" xml:space="preserve" width="512px" height="512px"><g><g>
	<g>
		<path d="M345.444,175.372L259.36,69.948c-0.744-0.908-1.856-1.444-3.024-1.444c-1.18,0-2.292,0.512-3.032,1.424L167.22,175.38    c-0.952,1.168-1.148,2.712-0.5,4.072c0.648,1.364,2.024,2.088,3.528,2.088h29.008v89.66c0,2.16,3.932,4.108,6.088,4.108h101.484    c2.16,0,1.824-1.948,1.824-4.108v-89.66h33.764c1.512,0,2.884-0.724,3.528-2.088C346.588,178.092,346.404,176.544,345.444,175.372    z" data-original="#000000" class="active-path" data-old_color="#000000" fill="#FFFFFF"/>
	</g>
</g><g>
	<g>
		<path d="M497.508,304.692c0-0.004,0.5-0.004,0.492-0.008l-65.02-63.368c-8.92-8.516-19.04-12.892-28.944-12.892h-69.988    c-4.316,0-7.812,3.5-7.812,7.816s3.496,7.816,7.812,7.816h69.988c7.92,0,14.932,5.432,18.344,8.692l47.28,46.004H322.34    c-4.3,0-7.788,3.296-7.812,7.592c-0.132,32.172-26.412,58.244-58.572,58.244c-32.16,0-58.44-26.024-58.576-58.196    c-0.02-4.296-3.512-7.64-7.816-7.64H38.472L85.696,252.8c3.472-3.312,10.488-8.744,18.408-8.744h73.744    c4.316,0,7.816-3.5,7.816-7.816c0-4.316-3.5-7.816-7.816-7.816H104.1c-9.904,0-20.276,4.376-29.256,12.948L9.78,303.72    C4.432,308.024,0,314.444,0,321.82v89.86c0,12.928,12.52,23.812,25.448,23.812H482.56c12.924,0,21.436-10.884,21.436-23.812    v-89.86C504,315.056,502.108,308.968,497.508,304.692z" data-original="#000000" class="active-path" data-old_color="#000000" fill="#FFFFFF"/>
	</g>
</g></g> </svg>
