<?xml version="1.0"?>
<svg xmlns="http://www.w3.org/2000/svg" xmlns:xlink="http://www.w3.org/1999/xlink" version="1.1" id="Capa_1" x="0px" y="0px" viewBox="0 0 512 512" style="enable-background:new 0 0 512 512;" xml:space="preserve" width="512px" height="512px"><g><g>
	<g>
		<g>
			<path d="M256,298.66c-10.527,0.031-20.665,3.982-28.437,11.083l-72.896-41.685c-5.116-2.946-11.652-1.186-14.597,3.931     c-2.945,5.116-1.186,11.652,3.931,14.597l71.755,41.003c-1.565,4.413-2.383,9.056-2.421,13.739     c0,23.564,19.102,42.667,42.667,42.667s42.667-19.102,42.667-42.667C298.667,317.762,279.564,298.66,256,298.66z M256,362.66     c-11.782,0-21.333-9.551-21.333-21.333c0-11.782,9.551-21.333,21.333-21.333c11.782,0,21.333,9.551,21.333,21.333     C277.333,353.109,267.782,362.66,256,362.66z" data-original="#000000" class="active-path" data-old_color="#000000" fill="#FFFFFF"/>
			<path d="M436.501,158.233c-50.187-48.853-117.141-74.549-187.68-72.811C111.616,89.103,0,203.727,0,340.975v57.227     c0.123,15.799,13,28.524,28.8,28.459h454.4c15.796,0.065,28.671-12.653,28.8-28.448v-62.219     C512,268.793,485.184,205.625,436.501,158.233z M490.667,398.233c-0.116,4.018-3.448,7.192-7.467,7.115H28.8     c-4.019,0.078-7.35-3.097-7.467-7.115v-57.259c0-125.781,102.304-230.869,228.053-234.229     c64.12-2.218,126.352,21.907,172.224,66.763c44.523,43.36,69.056,101.056,69.056,162.485V398.233z" data-original="#000000" class="active-path" data-old_color="#000000" fill="#FFFFFF"/>
			<path d="M256,181.327c5.891,0,10.667-4.776,10.667-10.667v-42.667c0-5.891-4.776-10.667-10.667-10.667     c-5.891,0-10.667,4.776-10.667,10.667v42.667C245.333,176.551,250.109,181.327,256,181.327z" data-original="#000000" class="active-path" data-old_color="#000000" fill="#FFFFFF"/>
			<path d="M416,341.327c0,5.891,4.776,10.667,10.667,10.667h42.667c5.891,0,10.667-4.776,10.667-10.667     s-4.776-10.667-10.667-10.667h-42.667C420.776,330.66,416,335.436,416,341.327z" data-original="#000000" class="active-path" data-old_color="#000000" fill="#FFFFFF"/>
			<path d="M85.333,330.66H42.667c-5.891,0-10.667,4.776-10.667,10.667s4.776,10.667,10.667,10.667h42.667     c5.891,0,10.667-4.776,10.667-10.667S91.224,330.66,85.333,330.66z" data-original="#000000" class="active-path" data-old_color="#000000" fill="#FFFFFF"/>
			<path d="M160.491,195.193c2.993,5.075,9.533,6.763,14.608,3.771c5.075-2.993,6.763-9.533,3.771-14.608l-18.133-30.795     c-2.993-5.075-9.533-6.763-14.608-3.771c-5.075,2.993-6.763,9.533-3.771,14.608L160.491,195.193z" data-original="#000000" class="active-path" data-old_color="#000000" fill="#FFFFFF"/>
			<path d="M396.224,256.783c2.893,5.13,9.397,6.945,14.528,4.053l31.477-17.771c5.179-2.807,7.102-9.281,4.295-14.46     c-2.807-5.179-9.281-7.102-14.46-4.295c-0.104,0.056-0.207,0.115-0.31,0.175l-31.477,17.771     C395.147,245.148,393.332,251.651,396.224,256.783z" data-original="#000000" class="active-path" data-old_color="#000000" fill="#FFFFFF"/>
			<path d="M111.723,242.244h0.011l-31.488-17.771c-5.083-2.978-11.618-1.272-14.596,3.811c-2.978,5.083-1.272,11.617,3.811,14.596     c0.102,0.06,0.206,0.118,0.31,0.175l31.477,17.771c5.179,2.807,11.654,0.884,14.46-4.296     C118.449,251.472,116.686,245.152,111.723,242.244z" data-original="#000000" class="active-path" data-old_color="#000000" fill="#FFFFFF"/>
			<path d="M365.915,149.782c-0.016-0.01-0.032-0.019-0.048-0.028c-5.075-2.989-11.612-1.298-14.603,3.776l-18.133,30.795     c-3.001,5.075-1.32,11.623,3.755,14.624c5.075,3.001,11.623,1.32,14.624-3.755l18.133-30.795     C372.65,159.333,370.981,152.788,365.915,149.782z" data-original="#000000" class="active-path" data-old_color="#000000" fill="#FFFFFF"/>
		</g>
	</g>
</g></g> </svg>
