<?xml version="1.0"?>
<svg xmlns="http://www.w3.org/2000/svg" id="Capa_1" enable-background="new 0 0 512 512" height="512px" viewBox="0 0 512 512" width="512px"><g><g><path d="m74.791 114.523c26.424.368 67.758 5.62 114.616 28.55 7.392 3.619 16.401.608 20.066-6.88 3.641-7.441.561-16.425-6.881-20.067-51.852-25.374-97.892-31.189-127.384-31.6-.071-.001-.143-.001-.213-.001-8.187 0-14.88 6.579-14.994 14.791-.115 8.283 6.507 15.091 14.79 15.207z" data-original="#000000" class="active-path" data-old_color="#000000" fill="#FFFFFF"/><path d="m202.593 176.126c-51.852-25.374-97.892-31.189-127.384-31.6-.071-.001-.143-.001-.213-.001-8.187 0-14.88 6.579-14.994 14.791-.116 8.284 6.506 15.092 14.789 15.208 26.424.368 67.758 5.62 114.616 28.55 7.392 3.619 16.401.608 20.066-6.88 3.641-7.443.561-16.427-6.88-20.068z" data-original="#000000" class="active-path" data-old_color="#000000" fill="#FFFFFF"/><path d="m202.593 236.126c-51.852-25.374-97.892-31.189-127.384-31.6-.071-.001-.143-.001-.213-.001-8.187 0-14.88 6.579-14.994 14.791-.116 8.284 6.506 15.092 14.789 15.208 26.424.368 67.758 5.62 114.616 28.55 7.392 3.619 16.401.608 20.066-6.88 3.641-7.443.561-16.427-6.88-20.068z" data-original="#000000" class="active-path" data-old_color="#000000" fill="#FFFFFF"/><path d="m309.407 116.126c-7.441 3.641-10.521 12.625-6.881 20.067 2.604 5.32 7.937 8.41 13.484 8.41 2.213 0 4.461-.492 6.582-1.53 37.64-18.419 75.865-28.024 113.616-28.55 8.283-.115 14.905-6.924 14.789-15.208-.115-8.283-6.876-14.901-15.207-14.79-42.213.589-84.735 11.221-126.383 31.601z" data-original="#000000" class="active-path" data-old_color="#000000" fill="#FFFFFF"/><path d="m500.638 7.584c-18.59-4.713-37.148-7.584-60.591-7.584-.016 0-.035 0-.05 0-43.627.009-110.281 11.25-183.997 63.569-73.272-52-139.55-63.382-182.937-63.566-24.136-.104-43.055 2.852-61.7 7.581-6.678 1.67-11.363 7.669-11.363 14.552v294.5c0 4.619 2.128 8.98 5.769 11.823 6.635 5.182 13.606 2.463 13.981 2.448 41.952-10.63 127.258-17.266 227.25 57.729 2.667 2 5.833 3 9 3s6.333-1 9-3c31.188-23.391 63.401-40.556 96-51.235v159.599c0 8.284 6.716 15 15 15h60c8.284 0 15-6.716 15-15v-172.236c21.132 1.097 36.088 4.848 41.675 6.252.277.008 7.061 2.515 13.557-2.557 3.641-2.843 5.769-7.204 5.769-11.823v-294.5c-.001-6.883-4.685-12.882-11.363-14.552zm-470.638 290.414v-263.956c9.661-1.955 24.286-4.124 42.937-4.04 39.466.168 100.214 10.809 168.063 59.726v258.166c-45.801-29.614-93.332-47.095-141.641-52.035-29.797-3.047-53.622-.62-69.359 2.139zm385.485-56.998h-18.969l9.484-29.8zm5.515 241h-30v-211h30zm61-183.931c-8.266-1.429-18.763-2.783-31-3.342v-38.667c.009-1.64-.255-3.321-.813-4.942l-29.894-93.926c-2.22-6.938-9.127-11.275-16.273-10.32-31.752 4.227-63.585 14.069-94.613 29.253-7.441 3.641-10.521 12.625-6.881 20.066 2.604 5.32 7.937 8.41 13.484 8.41 2.213 0 4.461-.492 6.582-1.53 20.297-9.932 40.912-17.319 61.544-22.097l-22.324 70.143c-.521 1.513-.806 3.135-.813 4.823v50.053c-30.537 8.934-60.681 22.965-90 41.91v-258.175c68.249-49.206 129.329-59.72 169.004-59.728h.043c18.182 0 32.464 2.124 41.954 4.043z" data-original="#000000" class="active-path" data-old_color="#000000" fill="#FFFFFF"/></g></g> </svg>
