<?xml version="1.0"?>
<svg xmlns="http://www.w3.org/2000/svg" xmlns:xlink="http://www.w3.org/1999/xlink" version="1.1" id="Layer_1" x="0px" y="0px" viewBox="0 0 512 512" style="enable-background:new 0 0 512 512;" xml:space="preserve" width="512px" height="512px"><g><g>
	<g>
		<path d="M439.652,66.783h-51.767C380.129,28.725,346.4,0,306.087,0c-9.22,0-16.696,7.475-16.696,16.696v50.087H72.348    c-9.22,0-16.696,7.475-16.696,16.696v411.826c0,9.22,7.475,16.696,16.696,16.696c11.834,0,362.155,0,367.304,0    c9.22,0,16.696-7.475,16.696-16.696V83.478C456.348,74.258,448.873,66.783,439.652,66.783z M89.043,100.174h200.348v100.174    H139.13c-9.22,0-16.696,7.475-16.696,16.696c0,9.22,7.475,16.696,16.696,16.696h150.261v112.484    c-17.175,2.434-33.414,8.61-47.77,18.15c-10.197-21.483-25.498-40.557-44.476-55.121c-26.42-20.275-58.027-30.992-91.406-30.992    c-5.591,0-11.165,0.326-16.696,0.939V100.174z M322.783,478.609H89.043V312.85c5.51-0.787,11.09-1.198,16.696-1.198    c52.06,0,98.31,34.941,112.467,84.97c3.517,12.428,19.128,16.249,28.033,7.095c11.896-12.232,26.832-20.34,43.152-23.627v15.041    c0,9.22,7.475,16.696,16.696,16.696h16.696c18.412,0,33.391,14.979,33.391,33.391    C356.174,463.629,341.195,478.609,322.783,478.609z M356.174,387.397c-9.828-5.698-21.237-8.962-33.391-8.962V36.252    c19.435,6.891,33.391,25.46,33.391,47.226V387.397z M422.957,478.609h-42.376c5.702-9.832,8.984-21.231,8.984-33.391V100.174    h33.391V478.609z" data-original="#000000" class="active-path" data-old_color="#000000" fill="#FFFFFF"/>
	</g>
</g><g>
	<g>
		<path d="M205.913,133.565H139.13c-9.22,0-16.696,7.475-16.696,16.696s7.475,16.696,16.696,16.696h66.783    c9.22,0,16.696-7.475,16.696-16.696S215.133,133.565,205.913,133.565z" data-original="#000000" class="active-path" data-old_color="#000000" fill="#FFFFFF"/>
	</g>
</g></g> </svg>
