<?xml version="1.0"?>
<svg xmlns="http://www.w3.org/2000/svg" id="Layer_3" enable-background="new 0 0 64 64" height="512px" viewBox="0 0 64 64" width="512px"><g><path d="m21 33c-.553 0-1 .447-1 1v8c0 .553.447 1 1 1h8c.553 0 1-.447 1-1v-8c0-.553-.447-1-1-1zm2.586 5-1.586 1.586v-3.172zm-.172-3h3.172l-1.586 1.586zm1.586 4.414 1.586 1.586h-3.172zm1.414-1.414 1.586-1.586v3.172z" data-original="#000000" class="active-path" data-old_color="#000000" fill="#FFFFFF"/><path d="m35 33c-.553 0-1 .447-1 1v8c0 .553.447 1 1 1h8c.553 0 1-.447 1-1v-8c0-.553-.447-1-1-1zm2.586 5-1.586 1.586v-3.172zm-.172-3h3.172l-1.586 1.586zm1.586 4.414 1.586 1.586h-3.172zm1.414-1.414 1.586-1.586v3.172z" data-original="#000000" class="active-path" data-old_color="#000000" fill="#FFFFFF"/><path d="m19 51h26c.553 0 1-.447 1-1v-4c0-.553-.447-1-1-1h-26c-.553 0-1 .447-1 1v4c0 .553.447 1 1 1zm1-4h24v2h-24z" data-original="#000000" class="active-path" data-old_color="#000000" fill="#FFFFFF"/><path d="m18 53h28v2h-28z" data-original="#000000" class="active-path" data-old_color="#000000" fill="#FFFFFF"/><path d="m18 57h28v2h-28z" data-original="#000000" class="active-path" data-old_color="#000000" fill="#FFFFFF"/><path d="m62 9c.553 0 1-.447 1-1v-4c0-.553-.447-1-1-1h-12v-1c0-.553-.447-1-1-1h-34c-.553 0-1 .447-1 1v1h-12c-.553 0-1 .447-1 1v4c0 .553.447 1 1 1h1v46h-1c-.553 0-1 .447-1 1v4c0 .553.447 1 1 1h12v1c0 .553.447 1 1 1h34c.553 0 1-.447 1-1v-1h12c.553 0 1-.447 1-1v-4c0-.553-.447-1-1-1h-1v-46zm-59-4h11v2h-11zm11 4v46h-5v-46zm-9 0h2v46h-2zm-2 50v-2h11v2zm45 2h-32v-58h32zm13-56v2h-11v-2zm-11 50v-46h5v46zm11 4h-11v-2h11zm-2-4h-2v-46h2z" data-original="#000000" class="active-path" data-old_color="#000000" fill="#FFFFFF"/><path d="m19 31h26c.553 0 1-.447 1-1v-24c0-.553-.447-1-1-1h-26c-.553 0-1 .447-1 1v24c0 .553.447 1 1 1zm10-17c0-1.654 1.346-3 3-3s3 1.346 3 3-1.346 3-3 3-3-1.346-3-3zm8 15h-10v-5c0-2.757 2.243-5 5-5s5 2.243 5 5zm-17-22h24v22h-5v-5c0-2.698-1.537-5.04-3.779-6.208 1.079-.918 1.779-2.268 1.779-3.792 0-2.757-2.243-5-5-5s-5 2.243-5 5c0 1.524.7 2.874 1.779 3.792-2.242 1.168-3.779 3.51-3.779 6.208v5h-5z" data-original="#000000" class="active-path" data-old_color="#000000" fill="#FFFFFF"/></g> </svg>
