<?xml version="1.0"?>
<svg xmlns="http://www.w3.org/2000/svg" viewBox="0 0 512 512" width="512px" height="512px"><g><g id="outline"><path d="M488,224H368a8,8,0,0,0-8,8v40H344V232a40.047,40.047,0,0,0-40-40h-8V144h49.474A23.731,23.731,0,0,0,344,152v16a8,8,0,0,0,8,8h48a8,8,0,0,0,8-8V152a24.027,24.027,0,0,0-24-24V94.864A31.934,31.934,0,0,0,403.549,80H416a24.027,24.027,0,0,0,24-24V40a8,8,0,0,0-8-8H408V24a8,8,0,0,0-8-8H352a8,8,0,0,0-8,8v8H320a8,8,0,0,0-8,8V56a24.027,24.027,0,0,0,24,24h12.451A31.934,31.934,0,0,0,368,94.864V96H283.549A31.631,31.631,0,0,0,288,80V64a32,32,0,0,0-64,0V80a31.631,31.631,0,0,0,4.451,16H200V24a8,8,0,0,0-8-8H160a8,8,0,0,0-8,8v80a40.047,40.047,0,0,0,40,40h24V320H144a8,8,0,0,0-8,8v40H24a8,8,0,0,0-8,8V488a8,8,0,0,0,8,8H488a8,8,0,0,0,8-8V232A8,8,0,0,0,488,224Zm-96-72v8H360v-8a8.008,8.008,0,0,1,8-8h16A8.008,8.008,0,0,1,392,152ZM424,48v8a8.008,8.008,0,0,1-8,8h-8V48ZM336,64a8.008,8.008,0,0,1-8-8V48h16V64Zm24,0V32h32V64a16,16,0,0,1-32,0ZM240,80V64a16,16,0,0,1,32,0V80a16,16,0,0,1-32,0Zm-16,48H192a24.027,24.027,0,0,1-24-24V32h16v72a8,8,0,0,0,8,8H368v16H288a8,8,0,0,0-8,8v64a8,8,0,0,0,8,8h16a24.027,24.027,0,0,1,24,24v40H312V232a8,8,0,0,0-8-8H256a8,8,0,0,0-8,8v88H232V136A8,8,0,0,0,224,128Zm40,144V240h32v32ZM32,384H136v96H32Zm120-48h96V480H152Zm112-48h96V480H264ZM480,480H376V240H480Z" data-original="#000000" class="active-path" data-old_color="#000000" fill="#FFFFFF"/></g></g> </svg>
