<?xml version="1.0"?>
<svg xmlns="http://www.w3.org/2000/svg" xmlns:xlink="http://www.w3.org/1999/xlink" version="1.1" id="Capa_1" x="0px" y="0px" viewBox="0 0 511.998 511.998" style="enable-background:new 0 0 511.998 511.998;" xml:space="preserve" width="512px" height="512px"><g><g>
	<g>
		<path d="M386.872,397.626c-2.031-5.158-7.859-7.698-13.02-5.663l-70.492,27.755c-5.159,2.031-7.695,7.86-5.663,13.02    c1.556,3.951,5.339,6.364,9.344,6.364c1.223,0,2.468-0.226,3.675-0.701l70.492-27.755    C386.368,408.615,388.904,402.786,386.872,397.626z" data-original="#000000" class="active-path" data-old_color="#000000" fill="#FFFFFF"/>
	</g>
</g><g>
	<g>
		<path d="M402.433,381.438c-12.919,0-12.94,20.078,0,20.078C415.352,401.516,415.374,381.438,402.433,381.438z" data-original="#000000" class="active-path" data-old_color="#000000" fill="#FFFFFF"/>
	</g>
</g><g>
	<g>
		<path d="M478.201,247.628c-0.138-0.66-0.34-1.295-0.6-1.9c0,0-0.001-0.002-0.001-0.003c-0.006-0.013-0.013-0.025-0.019-0.039    c-0.125-0.289-0.263-0.57-0.415-0.844c-0.064-0.117-0.139-0.228-0.208-0.341c-0.097-0.162-0.192-0.324-0.298-0.48    c-0.109-0.161-0.23-0.312-0.347-0.465c-0.077-0.099-0.151-0.203-0.232-0.3c-0.138-0.165-0.284-0.319-0.431-0.474    c-0.075-0.079-0.147-0.161-0.225-0.238c-0.149-0.147-0.304-0.282-0.46-0.419c-0.089-0.078-0.177-0.159-0.269-0.234    c-0.146-0.117-0.296-0.226-0.448-0.334c-0.115-0.083-0.229-0.17-0.347-0.248c-0.133-0.088-0.272-0.168-0.409-0.249    c-0.146-0.086-0.29-0.175-0.44-0.254c-0.12-0.063-0.246-0.118-0.368-0.178c-0.171-0.081-0.341-0.164-0.518-0.236    c-0.12-0.049-0.244-0.089-0.365-0.134c-0.181-0.065-0.36-0.133-0.546-0.189c-0.147-0.044-0.296-0.077-0.445-0.114    c-0.162-0.04-0.321-0.084-0.486-0.117c-0.221-0.044-0.444-0.073-0.668-0.102c-0.095-0.012-0.19-0.031-0.286-0.04    c-1.046-0.105-2.117-0.043-3.177,0.195c-0.616,0.137-1.213,0.326-1.781,0.571l-54.72,23.5    c-23.478-40.073-61.031-68.797-104.573-81.214c29.199-16.986,48.872-48.62,48.872-84.765C353.991,43.955,310.031,0,255.999,0    c-54.028,0-97.982,43.954-97.982,97.982c0,36.145,19.672,67.778,48.868,84.765c-43.537,12.416-81.091,41.139-104.576,81.212    l-54.722-23.498c-0.618-0.266-1.268-0.475-1.943-0.612c-0.673-0.139-1.35-0.204-2.021-0.204c-0.002,0-0.004,0-0.005,0    c-0.329,0-0.656,0.017-0.981,0.049c-0.122,0.012-0.241,0.035-0.362,0.051c-0.199,0.027-0.397,0.052-0.592,0.09    c-0.182,0.035-0.357,0.083-0.535,0.128c-0.133,0.034-0.266,0.063-0.397,0.102c-0.197,0.058-0.388,0.13-0.579,0.2    c-0.111,0.041-0.224,0.077-0.334,0.122c-0.184,0.075-0.361,0.161-0.54,0.246c-0.116,0.055-0.234,0.107-0.348,0.168    c-0.156,0.082-0.305,0.173-0.455,0.262c-0.133,0.079-0.266,0.156-0.396,0.24c-0.122,0.08-0.238,0.168-0.356,0.254    c-0.149,0.107-0.297,0.214-0.441,0.329c-0.093,0.076-0.182,0.158-0.272,0.237c-0.156,0.135-0.31,0.27-0.458,0.416    c-0.078,0.077-0.151,0.16-0.226,0.24c-0.147,0.155-0.292,0.308-0.43,0.472c-0.081,0.097-0.155,0.2-0.232,0.3    c-0.118,0.154-0.238,0.304-0.348,0.465c-0.106,0.155-0.201,0.318-0.298,0.479c-0.069,0.115-0.143,0.224-0.208,0.342    c-0.152,0.274-0.288,0.555-0.415,0.844c-0.006,0.013-0.013,0.025-0.019,0.039c0,0.001-0.001,0.002-0.001,0.002    c-0.26,0.606-0.463,1.242-0.6,1.901c-0.144,0.685-0.213,1.373-0.213,2.057V410.75c0,4.014,2.39,7.641,6.078,9.224l212.378,91.206    c0.348,0.15,0.702,0.274,1.056,0.383c0.059,0.018,0.12,0.029,0.179,0.046c0.377,0.107,0.756,0.189,1.136,0.25    c0.09,0.014,0.181,0.029,0.271,0.041c0.439,0.058,0.877,0.098,1.315,0.098c0.039,0,0.077-0.008,0.117-0.009    c0.385-0.004,0.77-0.035,1.153-0.084c0.128-0.016,0.254-0.036,0.38-0.058c0.344-0.057,0.686-0.132,1.024-0.226    c0.078-0.022,0.158-0.037,0.236-0.061c0.356-0.107,0.709-0.232,1.055-0.38l212.378-91.206c3.687-1.583,6.078-5.21,6.078-9.224    V249.685C478.415,249.001,478.346,248.313,478.201,247.628z M178.093,97.983c0-42.956,34.947-77.904,77.904-77.904    c42.962,0,77.914,34.948,77.914,77.904c0,42.963-34.951,77.914-77.914,77.914C213.04,175.897,178.093,140.946,178.093,97.983z     M245.957,486.722l-192.3-82.583V264.92h0.001l48.648,20.89c0.134,0.064,0.27,0.126,0.407,0.186l143.245,61.51V486.722z     M255.996,329.964l-135.104-58.013c28.622-47.125,79.447-75.975,135.105-75.975c55.666,0,106.49,28.848,135.103,75.969    L255.996,329.964z M458.336,404.138l-192.3,82.583V347.504l192.3-82.583V404.138z" data-original="#000000" class="active-path" data-old_color="#000000" fill="#FFFFFF"/>
	</g>
</g></g> </svg>
