<?xml version="1.0"?>
<svg xmlns="http://www.w3.org/2000/svg" height="512px" viewBox="-64 0 512 512" width="512px"><g><g fill-rule="evenodd"><path d="m384.429688 113.683594c-.003907-.113282-.011719-.226563-.019532-.339844-.027344-.421875-.074218-.84375-.15625-1.253906 0-.011719 0-.019532-.003906-.027344-.082031-.421875-.203125-.832031-.339844-1.238281-.039062-.105469-.074218-.210938-.113281-.3125-.144531-.382813-.304687-.757813-.492187-1.121094-.011719-.023437-.023438-.046875-.035157-.070313-.203125-.382812-.4375-.742187-.6875-1.097656-.066406-.089844-.132812-.179687-.199219-.265625-.269531-.351562-.550781-.691406-.867187-1.007812l-104.019531-104.019531c-.316406-.316407-.65625-.601563-1.007813-.871094-.089843-.066406-.175781-.128906-.265625-.195313-.351562-.25-.714844-.488281-1.097656-.6875-.023438-.015625-.046875-.023437-.070312-.035156-.363282-.1875-.734376-.351563-1.117188-.492187-.105469-.039063-.210938-.078126-.320312-.113282-.402344-.136718-.8125-.257812-1.234376-.34375-.011718 0-.027343 0-.039062-.003906-.40625-.078125-.820312-.125-1.234375-.15625-.121094-.0078125-.238281-.0117188-.355469-.015625-.109375-.0039062-.21875-.015625-.328125-.015625h-260.425781c-5.523438 0-10 4.476562-10 10v492c0 5.523438 4.476562 10 10 10h364.445312c5.523438 0 10-4.476562 10-10v-387.980469c0-.113281-.011718-.222656-.015624-.335937zm-104.003907-79.542969 69.875 69.878906h-69.875zm-260.425781 457.859375v-472h240.425781v94.019531c0 5.523438 4.476563 10 10 10h94.019531v367.980469zm0 0" data-original="#000000" class="active-path" data-old_color="#000000" fill="#FFFFFF"/><path d="m287.472656 312.253906h-106.25v-106.25c0-2.652344-1.066406-5.195312-2.941406-7.074218-1.878906-1.875-4.433594-2.925782-7.085938-2.925782-69.597656.011719-126.222656 56.648438-126.222656 126.25 0 18.777344 4.03125 36.859375 11.988282 53.742188 2.355468 4.996094 8.3125 7.140625 13.308593 4.785156 4.996094-2.355469 7.136719-8.3125 4.785157-13.308594-6.691407-14.199218-10.082032-29.414062-10.082032-45.222656 0-55.203125 42.328125-100.714844 96.25-105.78125v105.78125c0 5.523438 4.476563 10 10 10h105.78125c-5.054687 53.914062-50.566406 96.25-105.78125 96.25-15.808594 0-31.023437-3.390625-45.222656-10.078125-4.996094-2.359375-10.953125-.214844-13.308594 4.78125-2.351562 4.996094-.210937 10.957031 4.785156 13.308594 16.882813 7.957031 34.964844 11.992187 53.746094 11.992187 69.613282 0 126.25-56.636718 126.25-126.25 0-5.523437-4.480468-10-10-10zm0 0" data-original="#000000" class="active-path" data-old_color="#000000" fill="#FFFFFF"/><path d="m213.222656 154c-.007812 0-.015625 0-.023437 0-5.519531 0-10 4.476562-10 10 0 .226562.011719.453125.023437.675781v115.574219c0 5.523438 4.476563 10 10 10h116.25.019532c5.523437 0 10-4.476562 10-10 0-.222656-.007813-.445312-.019532-.664062-.359375-69.3125-56.855468-125.585938-126.25-125.585938zm10 116.25v-95.78125c50.621094 4.746094 91.035156 45.160156 95.785156 95.78125zm0 0" data-original="#000000" class="active-path" data-old_color="#000000" fill="#FFFFFF"/><path d="m89.019531 394.453125c-5.507812 0-10 4.492187-10 10s4.492188 10 10 10c5.507813 0 10-4.492187 10-10s-4.492187-10-10-10zm0 0" data-original="#000000" class="active-path" data-old_color="#000000" fill="#FFFFFF"/></g></g> </svg>
