<?xml version="1.0"?>
<svg xmlns="http://www.w3.org/2000/svg" xmlns:xlink="http://www.w3.org/1999/xlink" version="1.1" id="Capa_1" x="0px" y="0px" viewBox="0 0 512 512" style="enable-background:new 0 0 512 512;" xml:space="preserve" width="512px" height="512px"><g><g>
	<g>
		<path d="M466,242.581c0-168.832,0.472-158.076-1.102-161.96c3.369-8.323-1.27-17.612-9.777-20.043l-210-60    c-2.693-0.77-5.548-0.77-8.241,0l-210,60C20.439,62.417,16,68.303,16,75.001s4.439,12.583,10.879,14.423L106,112.029    c0,0.679,0,1.306,0,1.891c0,5.083,0,6.755,0,6.727c0,8.27,0,25.579,0,59.353c0,58.278,30.068,108.896,73.87,133.718l-8.275,16.55    c-40.483,2.316-78.308,19.564-107.364,49.156C33.129,411.1,16,452.855,16,497.001c0,8.284,6.716,15,15,15h420    c8.284,0,15-6.716,15-15c0-44.145-17.129-85.9-48.231-117.575c-29.054-29.59-66.879-46.827-107.359-49.146l-8.281-16.561    C345.932,288.897,376,238.279,376,180.001c0-3.699,0-66.967,0-67.971l60-17.143v147.694c-17.459,6.192-30,22.865-30,42.42v30    c0,8.284,6.716,15,15,15h60c8.284,0,15-6.716,15-15v-30C496,265.446,483.459,248.772,466,242.581z M226,482.001H46.804    c7.103-65.907,60.46-117.899,126.328-121.761L226,439.543V482.001z M198.309,343.923l9.286-18.573    c10.687,3.034,21.879,4.651,33.405,4.651s22.717-1.617,33.404-4.65l9.286,18.572L241,407.959L198.309,343.923z M308.868,360.241    c65.868,3.86,119.225,55.853,126.328,121.76H256v-42.458L308.868,360.241z M241,300.001c-50.888,0-93.431-41.589-102.988-96.587    c31.678,14.133,67.086,21.587,102.988,21.587c35.9,0,71.308-7.453,102.987-21.584C334.43,258.413,291.887,300.001,241,300.001z     M345.672,163.069c-0.872,4.334-3.441,7.986-7.037,9.752c-29.533,14.51-63.294,22.179-97.635,22.179    c-34.344,0-68.106-7.671-97.637-22.183c-4.892-2.403-7.363-7.967-7.363-13.031V120.6c108.861,31.103,101.999,29.4,105,29.4    c3,0-3.883,1.71,105-29.4C346,163.657,346.119,160.868,345.672,163.069z M241,119.401l-155.399-44.4L241,30.6l155.399,44.4    L241,119.401z M466,300.001h-30v-15c0-8.271,6.729-15,15-15s15,6.729,15,15V300.001z" data-original="#000000" class="active-path" data-old_color="#000000" fill="#FFFFFF"/>
	</g>
</g><g>
	<g>
		<path d="M361,420.001h-30c-8.284,0-15,6.716-15,15s6.716,15,15,15h30c8.284,0,15-6.716,15-15S369.284,420.001,361,420.001z" data-original="#000000" class="active-path" data-old_color="#000000" fill="#FFFFFF"/>
	</g>
</g></g> </svg>
