<?xml version="1.0"?>
<svg xmlns="http://www.w3.org/2000/svg" height="512px" viewBox="-30 1 511 511.9995" width="512px" class=""><g><path d="m209.78125 328.175781v-86.175781h5c8.285156 0 15-6.714844 15-15s-6.714844-15-15-15h-160c-8.285156 0-15 6.714844-15 15s6.714844 15 15 15h5v86.175781c-7.214844 13.226563-44.613281 81.789063-51.871094 95.09375-21.796875 39.960938 7.089844 88.730469 52.671875 88.730469h148.394531c45.515626 0 74.5-48.710938 52.671876-88.730469zm-30-86.175781v90c0 4.960938.769531 5.238281 14.277344 30h-118.554688c13.464844-24.6875 14.277344-25.023438 14.277344-30v-90zm29.195312 240h-148.394531c-22.761719 0-37.246093-24.359375-26.335937-44.367188l24.890625-45.632812h151.285156l24.890625 45.632812c10.898438 19.980469-3.542969 44.367188-26.335938 44.367188zm0 0" data-original="#000000" class="active-path" data-old_color="#000000" fill="#FFFFFF"/><path d="m428.8125 162.785156c-7.457031-7.460937-130.277344-130.277344-137.921875-137.921875 5.160156-5.890625 4.949219-14.851562-.671875-20.46875-5.855469-5.859375-15.355469-5.859375-21.210938 0-30.84375 30.839844-72.339843 72.339844-105.359374 105.355469-5.859376 5.859375-5.859376 15.355469 0 21.214844 5.855468 5.859375 15.355468 5.859375 21.214843 0l137.882813 137.886718c29.3125 29.308594 76.753906 29.3125 106.066406 0s29.316406-76.753906 0-106.066406zm-222.738281-53.035156 63.640625-63.636719 74.886718 74.886719h-127.277343zm201.523437 137.886719c-17.585937 17.585937-46.046875 17.589843-63.636718 0l-96.640626-96.636719h127.28125l32.996094 33c17.589844 17.585938 17.589844 46.050781 0 63.636719zm0 0" data-original="#000000" class="active-path" data-old_color="#000000" fill="#FFFFFF"/><path d="m150.152344 167c0 8.285156-6.71875 15-15 15-8.285156 0-15-6.714844-15-15s6.714844-15 15-15c8.28125 0 15 6.714844 15 15zm0 0" data-original="#000000" class="active-path" data-old_color="#000000" fill="#FFFFFF"/><path d="m120.152344 107c0 8.285156-6.71875 15-15 15-8.285156 0-15-6.714844-15-15s6.714844-15 15-15c8.28125 0 15 6.714844 15 15zm0 0" data-original="#000000" class="active-path" data-old_color="#000000" fill="#FFFFFF"/></g> </svg>
